<?xml version="1.0" standalone="no"?><!DOCTYPE svg PUBLIC "-//W3C//DTD SVG 1.1//EN" "http://www.w3.org/Graphics/SVG/1.1/DTD/svg11.dtd"><svg t="1515987245619" class="icon" style="" viewBox="0 0 1024 1024" version="1.1" xmlns="http://www.w3.org/2000/svg" p-id="978" xmlns:xlink="http://www.w3.org/1999/xlink" width="200" height="200"><defs><style type="text/css"></style></defs><path d="M512 32a480 480 0 1 0 480 480A480 480 0 0 0 512 32z m0 896a416 416 0 1 1 416-416 416 416 0 0 1-416 416z" p-id="979" fill="#D5D5D5"></path><path d="M672 512a32 32 0 0 0 0-64h-128a32 32 0 0 0 7.04-7.36l84.8-135.68a32 32 0 0 0-54.4-33.92L512 381.12l-68.8-110.08a32 32 0 0 0-54.4 33.92l84.8 135.68a32 32 0 0 0 6.4 7.36h-128a32 32 0 0 0 0 64h128v96h-128a32 32 0 0 0 0 64h128v96a32 32 0 0 0 64 0v-96h128a32 32 0 0 0 0-64h-128v-96z" p-id="980" fill="#D5D5D5"></path></svg>